<svg id="Layer_1" data-name="Layer 1" xmlns="http://www.w3.org/2000/svg" xmlns:xlink="http://www.w3.org/1999/xlink" width="214.81" height="39.62" viewBox="0 0 214.81 39.62"><defs><style>.cls-1{fill:none;}.cls-2{clip-path:url(#clip-path);}.cls-3{fill:#6c6b69;}.cls-4{clip-path:url(#clip-path-2);}.cls-5{clip-path:url(#clip-path-3);}.cls-6{clip-path:url(#clip-path-4);}.cls-7{clip-path:url(#clip-path-5);}.cls-8{clip-path:url(#clip-path-6);}.cls-9{clip-path:url(#clip-path-7);}.cls-10{clip-path:url(#clip-path-8);}.cls-11{fill:url(#linear-gradient);}</style><clipPath id="clip-path" transform="translate(0 0)"><rect class="cls-1" x="71.11" width="15.46" height="14.13"/></clipPath><clipPath id="clip-path-2" transform="translate(0 0)"><rect class="cls-1" x="71.21" y="2.45" width="15.27" height="6.29"/></clipPath><clipPath id="clip-path-3" transform="translate(0 0)"><rect class="cls-1" x="71.95" y="1.11" width="13.89" height="11.29"/></clipPath><clipPath id="clip-path-4" transform="translate(0 0)"><rect class="cls-1" x="77.55" y="1.73" width="4.89" height="4"/></clipPath><clipPath id="clip-path-5" transform="translate(0 0)"><rect class="cls-1" x="82.13" y="2.81" width="3.34" height="5.09"/></clipPath><clipPath id="clip-path-6" transform="translate(0 0)"><rect class="cls-1" x="73.53" y="0.4" width="4.28" height="3.27"/></clipPath><clipPath id="clip-path-7" transform="translate(0 0)"><rect class="cls-1" x="75.59" y="2.33" width="6.78" height="11.99"/></clipPath><clipPath id="clip-path-8" transform="translate(0 0)"><path class="cls-1" d="M69.18,30.83a6.31,6.31,0,0,1-4.06-4q-.81-2.69.82-6.77t4-5.41a6.05,6.05,0,0,1,5.5-.18,6.07,6.07,0,0,1,3.9,4,10.42,10.42,0,0,1-.78,6.69Q77,29.21,74.5,30.59a5.71,5.71,0,0,1-2.82.76,6.73,6.73,0,0,1-2.5-.52m-.94-17.22a8.68,8.68,0,0,0-5.12,5.24,9.09,9.09,0,0,0,0,7.47,10,10,0,0,0,5.63,5.07,10,10,0,0,0,7.64.23,9,9,0,0,0,5.07-5.34,8.72,8.72,0,0,0-.09-7.45,10.32,10.32,0,0,0-5.66-5A11.1,11.1,0,0,0,71.58,13a9.5,9.5,0,0,0-3.34.61"/></clipPath><linearGradient id="linear-gradient" x1="-70.9" y1="90.95" x2="-70.31" y2="90.95" gradientTransform="matrix(32.26, 0, 0, -32.26, 2349.85, 2956.57)" gradientUnits="userSpaceOnUse"><stop offset="0" stop-color="#9b8700"/><stop offset="0.53" stop-color="#947500"/><stop offset="1" stop-color="#e0c900"/></linearGradient></defs><title>logo</title><g class="cls-2"><path class="cls-3" d="M75.66,14.13,71.11,2.49,76.26,0l8.42,3.38,1.88,5.31ZM71.38,2.6l4.39,11.23L86.3,8.58l-1.79-5L76.27.24Z" transform="translate(0 0)"/></g><g class="cls-4"><polygon class="cls-3" points="86.39 8.74 71.21 2.65 71.28 2.44 86.47 8.54 86.39 8.74"/></g><g class="cls-5"><polygon class="cls-3" points="79.11 12.4 78.98 12.23 83.28 8.26 77.57 11.56 78.61 6.2 75.88 10.89 73.84 4.42 74.23 9.9 74.02 9.94 71.95 2.84 73.97 1.11 74.11 1.27 72.19 2.91 73.94 8.9 73.56 3.52 73.77 3.48 75.94 10.36 78.74 5.54 78.94 5.61 77.87 11.14 84.01 7.6 84.14 7.77 79.89 11.7 85.61 8.3 85.23 5.57 85.45 5.54 85.84 8.41 79.11 12.4"/></g><g class="cls-6"><path class="cls-3" d="M78.77,5.73,77.55,2.31l3.08-.58,1.8,2.64Zm-.94-3.26,1.07,3L82.1,4.27,80.53,2Z" transform="translate(0 0)"/></g><g class="cls-7"><path class="cls-3" d="M84.06,7.91l-1.93-3.6,1.29-1.49,2,2.73ZM82.39,4.33l1.68,3.14,1.14-1.91-1.8-2.4Z" transform="translate(0 0)"/></g><g class="cls-8"><path class="cls-3" d="M73.53,3.67l.41-2.56L77.35.4l.46,2.07Zm.6-2.38L73.8,3.37l3.76-1.05L77.19.65Z" transform="translate(0 0)"/></g><g class="cls-9"><polygon class="cls-3" points="75.59 14.32 76.16 4.52 77.6 2.33 77.78 2.45 76.38 4.6 75.85 13.63 81.26 6.54 82.16 4.28 82.36 4.36 81.44 6.66 75.59 14.32"/></g><path class="cls-3" d="M11.55,16.45a10.69,10.69,0,0,0-5.06-1q-1,0-4,.15l-2.39.12v.49H.49a3.42,3.42,0,0,1,1.43.19,1,1,0,0,1,.43.7,15,15,0,0,1,.1,2.25v7a15.65,15.65,0,0,1-.1,2.33,1.1,1.1,0,0,1-.46.74,2.52,2.52,0,0,1-1.29.24H0v.49H6.45a26.84,26.84,0,0,0,2.81-.11,7.91,7.91,0,0,0,2.11-.57,5.66,5.66,0,0,0,2-1.33A6.15,6.15,0,0,0,14.66,26,8.5,8.5,0,0,0,15.14,23a8.3,8.3,0,0,0-.89-3.91,6.42,6.42,0,0,0-2.7-2.68M12,27.09a4.3,4.3,0,0,1-2,2.05,8,8,0,0,1-3.12.52,3.69,3.69,0,0,1-1.7-.25,1.14,1.14,0,0,1-.48-.88q-.08-.62-.08-2.78V16Q5.4,16,6.22,16A9.79,9.79,0,0,1,9,16.3a4.62,4.62,0,0,1,2,1.23,6,6,0,0,1,1.37,2.36,10.5,10.5,0,0,1,.48,3.3,8.22,8.22,0,0,1-.82,3.9" transform="translate(0 0)"/><path class="cls-3" d="M16.55,16.1h.31a3.39,3.39,0,0,1,1.44.19,1,1,0,0,1,.43.7,15.68,15.68,0,0,1,.1,2.25v7.15a16.49,16.49,0,0,1-.1,2.33,1.08,1.08,0,0,1-.46.74,2.52,2.52,0,0,1-1.3.24h-.43v.49h6.66v-.49h-.43a2.41,2.41,0,0,1-1.34-.26,1.15,1.15,0,0,1-.43-.79,19.41,19.41,0,0,1-.08-2.25V19.24a13.65,13.65,0,0,1,.11-2.3.93.93,0,0,1,.45-.66,3.54,3.54,0,0,1,1.41-.18h.31v-.49H16.55Z" transform="translate(0 0)"/><path class="cls-3" d="M38,28.5,37.33,27,32.45,15.41H32L27.81,25.52l-.52,1.25A8.32,8.32,0,0,1,26.15,29a2.33,2.33,0,0,1-1.44.68v.49H29v-.49a1.84,1.84,0,0,1-1.14-.34,1.17,1.17,0,0,1-.45-1,9.37,9.37,0,0,1,.84-2.62l.38-.92h5.54l1.12,2.7a6.26,6.26,0,0,1,.49,1.41.6.6,0,0,1-.37.62,4.25,4.25,0,0,1-1.42.16v.49h5.72v-.49a2.19,2.19,0,0,1-1.14-.37,2,2,0,0,1-.6-.81m-9.13-4.18,2.57-6.21L34,24.32Z" transform="translate(0 0)"/><path class="cls-3" d="M51.07,27.66,45.74,15.61H41.29v.49h.4a3.36,3.36,0,0,1,1.43.19,1,1,0,0,1,.43.7,15,15,0,0,1,.1,2.25v6.34a15.63,15.63,0,0,1-.13,2.47,1.84,1.84,0,0,1-.71,1.12,2.65,2.65,0,0,1-1.52.51v.49H46.5v-.49a2.61,2.61,0,0,1-1.57-.54A1.84,1.84,0,0,1,44.27,28a17.14,17.14,0,0,1-.11-2.39V17.11L50,30.18h.51l5.78-13.07v9.27a15.62,15.62,0,0,1-.1,2.33,1.1,1.1,0,0,1-.46.74,2.49,2.49,0,0,1-1.28.24h-.52v.49h7v-.49h-.64a2.41,2.41,0,0,1-1.34-.26,1.17,1.17,0,0,1-.44-.79,17.88,17.88,0,0,1-.09-2.25V19.24a13.64,13.64,0,0,1,.11-2.3.93.93,0,0,1,.45-.66,3.52,3.52,0,0,1,1.41-.18h.54v-.49H56.39Z" transform="translate(0 0)"/><path class="cls-3" d="M94.22,16.1a4.26,4.26,0,0,1,1.47.23,1.4,1.4,0,0,1,.81.61,3.24,3.24,0,0,1,.2,1.35V27l-8.63-11.4h-4.3v.49a4.35,4.35,0,0,1,1.51.16,1.06,1.06,0,0,1,.49.73,10.33,10.33,0,0,1,.16,2.25V27a8.13,8.13,0,0,1-.1,1.68,1.25,1.25,0,0,1-.65.66,3.91,3.91,0,0,1-1.59.38v.49H89v-.49a3.59,3.59,0,0,1-1.74-.33,1.39,1.39,0,0,1-.7-.73A6.87,6.87,0,0,1,86.46,27V16.86l10.3,13.66h.46V18.46a4.22,4.22,0,0,1,.15-1.33,1.31,1.31,0,0,1,.68-.67,3.84,3.84,0,0,1,1.46-.35v-.49H94.22Z" transform="translate(0 0)"/><path class="cls-3" d="M112.56,16.45a10.68,10.68,0,0,0-5.06-1q-1,0-4,.15l-2.39.12v.49h.43a3.42,3.42,0,0,1,1.43.19,1,1,0,0,1,.43.7,15,15,0,0,1,.1,2.25v7a15.61,15.61,0,0,1-.1,2.33,1.1,1.1,0,0,1-.46.74,2.53,2.53,0,0,1-1.3.24H101v.49h6.45a26.83,26.83,0,0,0,2.81-.11,7.91,7.91,0,0,0,2.11-.57,5.67,5.67,0,0,0,2-1.33,6.17,6.17,0,0,0,1.33-2.2,8.51,8.51,0,0,0,.48-2.93,8.31,8.31,0,0,0-.88-3.91,6.42,6.42,0,0,0-2.7-2.68M113,27.09a4.29,4.29,0,0,1-2,2.05,8,8,0,0,1-3.12.52,3.69,3.69,0,0,1-1.7-.25,1.13,1.13,0,0,1-.48-.88q-.08-.62-.08-2.78V16q.84-.05,1.65-.05a9.79,9.79,0,0,1,2.78.33,4.61,4.61,0,0,1,2,1.23,6,6,0,0,1,1.37,2.36,10.52,10.52,0,0,1,.48,3.3,8.22,8.22,0,0,1-.82,3.9" transform="translate(0 0)"/><path class="cls-3" d="M134.09,16.1h.39a3.34,3.34,0,0,1,1.43.19,1,1,0,0,1,.42.7,15.62,15.62,0,0,1,.1,2.25v2.89h-7.6V19.24a13.69,13.69,0,0,1,.11-2.3.93.93,0,0,1,.44-.66,3.51,3.51,0,0,1,1.4-.18h.27v-.49h-6.56v.49h.27a3.34,3.34,0,0,1,1.43.19,1,1,0,0,1,.43.7,14.81,14.81,0,0,1,.1,2.25v7.15a15.58,15.58,0,0,1-.1,2.33,1.1,1.1,0,0,1-.46.74,2.52,2.52,0,0,1-1.29.24h-.38v.49h6.56v-.49h-.38a2.39,2.39,0,0,1-1.33-.26,1.16,1.16,0,0,1-.44-.79,18.09,18.09,0,0,1-.09-2.25V22.87h7.6v3.51a16.44,16.44,0,0,1-.1,2.33,1.08,1.08,0,0,1-.46.74,2.49,2.49,0,0,1-1.28.24h-.5v.49h6.63v-.49h-.33a2.42,2.42,0,0,1-1.33-.26,1.13,1.13,0,0,1-.44-.79,19.1,19.1,0,0,1-.08-2.25V19.24a13.67,13.67,0,0,1,.11-2.3.93.93,0,0,1,.45-.66,3.54,3.54,0,0,1,1.41-.18h.22v-.49h-6.63Z" transform="translate(0 0)"/><path class="cls-3" d="M153,28.18a3.35,3.35,0,0,1-1.41,1.21,5.17,5.17,0,0,1-1.89.29h-1.08q-1.46,0-1.79-.46a7.48,7.48,0,0,1-.33-3V22.73h1.61a5,5,0,0,1,1.33.12,1,1,0,0,1,.6.54,4.24,4.24,0,0,1,.2,1.63h.49V20h-.49a5,5,0,0,1-.14,1.45,1,1,0,0,1-.56.55,4.22,4.22,0,0,1-1.49.18h-1.55V16.1h2a10.46,10.46,0,0,1,2.21.17,2.14,2.14,0,0,1,1.19.81,5.7,5.7,0,0,1,.84,2.17h.49L153,15.61H142.53v.49a3,3,0,0,1,1.38.21,1,1,0,0,1,.42.74,16.25,16.25,0,0,1,.09,2.19v7.14a16.86,16.86,0,0,1-.09,2.27,1.3,1.3,0,0,1-.4.74,2.26,2.26,0,0,1-1.4.29h-.3v.49h12.06l.32-4.53h-.52A7.12,7.12,0,0,1,153,28.18" transform="translate(0 0)"/><path class="cls-3" d="M169.1,28.5,168.43,27l-4.88-11.57h-.41L158.9,25.52l-.52,1.25A8.35,8.35,0,0,1,157.25,29a2.34,2.34,0,0,1-1.44.68v.49h4.33v-.49a1.84,1.84,0,0,1-1.14-.34,1.17,1.17,0,0,1-.45-1,9.4,9.4,0,0,1,.84-2.62l.38-.92h5.54l1.12,2.7a6.29,6.29,0,0,1,.49,1.41.6.6,0,0,1-.37.62,4.26,4.26,0,0,1-1.42.16v.49h5.72v-.49a2.19,2.19,0,0,1-1.14-.37,2,2,0,0,1-.6-.81M160,24.32l2.57-6.21,2.57,6.21Z" transform="translate(0 0)"/><path class="cls-3" d="M180,16.1q1.75,0,1.75,1.28a9.39,9.39,0,0,1-.85,2.63l-3.36,8.06-4.19-9.68a5.36,5.36,0,0,1-.5-1.46.65.65,0,0,1,.4-.66,4.73,4.73,0,0,1,1.58-.17v-.49h-6.26v.49a2.55,2.55,0,0,1,1.49.38,3.33,3.33,0,0,1,.88,1.38c.2.51.35.87.44,1.07l5,11.6H177l4.34-10.3,1-2.29a3.75,3.75,0,0,1,.89-1.35,1.82,1.82,0,0,1,1.19-.48v-.49H180Z" transform="translate(0 0)"/><path class="cls-3" d="M196.14,28.18a3.36,3.36,0,0,1-1.41,1.21,5.19,5.19,0,0,1-1.89.29h-1.08q-1.46,0-1.79-.46a7.49,7.49,0,0,1-.33-3V22.73h1.61a5,5,0,0,1,1.33.12,1,1,0,0,1,.6.54,4.25,4.25,0,0,1,.2,1.63h.5V20h-.5a5,5,0,0,1-.13,1.45,1,1,0,0,1-.56.55,4.22,4.22,0,0,1-1.49.18h-1.55V16.1h2a10.48,10.48,0,0,1,2.21.17,2.14,2.14,0,0,1,1.19.81,5.68,5.68,0,0,1,.84,2.17h.49l-.33-3.63H185.64v.49a3,3,0,0,1,1.38.21,1,1,0,0,1,.42.74,16.42,16.42,0,0,1,.09,2.19v7.14a17,17,0,0,1-.09,2.27,1.3,1.3,0,0,1-.4.74,2.25,2.25,0,0,1-1.4.29h-.3v.49H197.4l.32-4.53h-.52a7.12,7.12,0,0,1-1.06,2.54" transform="translate(0 0)"/><path class="cls-3" d="M209.52,15.61v.49a4.26,4.26,0,0,1,1.47.23,1.4,1.4,0,0,1,.81.61,3.25,3.25,0,0,1,.2,1.35V27l-8.63-11.4h-4.3v.49a4.34,4.34,0,0,1,1.51.16,1.05,1.05,0,0,1,.49.73,10.27,10.27,0,0,1,.16,2.25V27a8.07,8.07,0,0,1-.1,1.68,1.24,1.24,0,0,1-.65.66,3.93,3.93,0,0,1-1.59.38v.49h5.44v-.49a3.59,3.59,0,0,1-1.74-.33,1.41,1.41,0,0,1-.7-.73,7,7,0,0,1-.12-1.65V16.86l10.3,13.66h.46V18.46a4.25,4.25,0,0,1,.14-1.33,1.32,1.32,0,0,1,.68-.67,3.85,3.85,0,0,1,1.46-.35v-.49Z" transform="translate(0 0)"/><g class="cls-10"><rect class="cls-11" x="59.41" y="9.64" width="25.77" height="26.29" transform="translate(24.31 81.46) rotate(-68.22)"/></g></svg>